<svg xmlns="http://www.w3.org/2000/svg" version="1.1" xmlns:xlink="http://www.w3.org/1999/xlink" xmlns:svgjs="http://svgjs.dev/svgjs" width="100%" height="100%" viewBox="0 0 1000 600"><rect width="1000" height="600" x="0" y="0" fill="#ffff"/><g><rect width="333.3333333333333" height="333.3333333333333" y="179.0520467995529" fill="#db0000" transform="matrix(0.7970423295118803,0,0,0.7970423295118803,0,24.447562348221368)" x="156.82980346679685"/><path d="M352.9195575414165 420.7187086974208L334.05261307595555 420.7187086974208L334.05261307595555 307.54822693682934L294.0734018284829 307.54822693682934L294.0734018284829 292.5170414288092Q304.86342296079613 292.5170414288092 314.1877475809165 290.9266047879191Q323.5120722010369 289.3673531792033 330.341594247212 284.6584133208816Q337.20230132556145 279.9494734625599 340.35198957516735 270.7187039389625L340.35198957516735 270.7187039389625L352.9195575414165 270.7187039389625L352.9195575414165 420.7187086974208Z " fill="#ffffff" transform="matrix(0.7970423295118803,0,0,0.7970423295118803,0,24.447562348221368)"/><path d="M624.0505498132135 420.71870313353105L624.0505498132135 420.71870313353105Q612.0711841622373 420.71870313353105 603.8174585462536 415.8753710880407Q595.56373293027 411.03203904255025 590.8350359627794 402.77831342656674L590.8350359627794 402.77831342656674L586.2782916122885 418.254048956536L573.4964804153138 418.254048956536L573.4964804153138 280.4053676618099L590.8350359627794 280.4053676618099L590.8350359627794 331.9911527617074Q595.56373293027 323.9666973017234 603.8174585462536 319.09470648673306Q612.0711841622373 314.2513744412426 624.0505498132135 314.2513744412426L624.0505498132135 314.2513744412426Q635.8006453081902 314.2513744412426 645.8312146331701 320.5563037312301Q655.8331251886503 326.83257425171763 661.9087843226382 338.6973048246941Q668.0131022261261 350.5620353976705 668.0131022261261 367.4993681721368L668.0131022261261 367.4993681721368Q668.0131022261261 384.40804217710325 661.9087843226382 396.2727727500797Q655.8331251886503 408.137503323056 645.8312146331701 414.44243261304354Q635.8006453081902 420.71870313353105 624.0505498132135 420.71870313353105ZM619.5224642322224 405.8734605325606L619.5224642322224 405.8734605325606Q632.7054982021963 405.8734605325606 640.6726361231804 395.75691489908064Q648.6111152746647 385.6403692656008 648.6111152746647 367.4993681721368L648.6111152746647 367.4993681721368Q648.6111152746647 349.12909692267334 640.6726361231804 339.12718636719325Q632.7054982021963 329.12527581171315 619.5224642322224 329.12527581171315L619.5224642322224 329.12527581171315Q606.3107714927487 329.12527581171315 598.3722923412645 339.12718636719325Q590.4051544202804 349.12909692267334 590.4051544202804 367.4993681721368L590.4051544202804 367.4993681721368Q590.4051544202804 385.6403692656008 598.3722923412645 395.75691489908064Q606.3107714927487 405.8734605325606 619.5224642322224 405.8734605325606ZM708.0207444480466 296.5115961207779L708.0207444480466 296.5115961207779Q702.8621659380568 296.5115961207779 699.0505495945645 292.6999797772855Q695.238933251072 288.8883634337931 695.238933251072 283.5005147678038L695.238933251072 283.5005147678038Q695.238933251072 278.1413248713144 699.0505495945645 274.4443436058218Q702.8621659380568 270.7187035708292 708.0207444480466 270.7187035708292L708.0207444480466 270.7187035708292Q713.4085931140359 270.7187035708292 717.2202094575283 274.4443436058218Q721.0318258010207 278.1413248713144 721.0318258010207 283.5005147678038L721.0318258010207 283.5005147678038Q721.0318258010207 288.8883634337931 717.2202094575283 292.6999797772855Q713.4085931140359 296.5115961207779 708.0207444480466 296.5115961207779ZM716.7043516065293 418.254048956536L699.3657960590638 418.254048956536L699.3657960590638 329.72710997121186L685.122387617592 329.72710997121186L685.122387617592 315.9135830722393L716.7043516065293 315.9135830722393L716.7043516065293 418.254048956536ZM779.4383980419046 418.254048956536L771.7865065854198 418.254048956536Q762.0998424944391 418.254048956536 756.8266289064496 416.3052526305399Q751.58207408796 414.32779753504377 749.6046189924639 408.76799625205484Q747.6558226664678 403.1795361995659 747.6558226664678 392.66176779308677L747.6558226664678 392.66176779308677L747.6558226664678 280.63463781780945L764.9943782139334 280.63463781780945L764.9943782139334 389.76723207359254Q764.9943782139334 397.619734916577 766.6279280754301 400.3136592495716Q768.2901367064268 402.97892481306627 775.5121466204124 402.97892481306627L775.5121466204124 402.97892481306627L779.4383980419046 402.97892481306627L779.4383980419046 418.254048956536ZM828.7314815818066 418.254048956536L821.1082488948218 418.254048956536Q811.421584803841 418.254048956536 806.1483712158515 416.3052526305399Q800.875157627862 414.32779753504377 798.9263613018659 408.76799625205484Q796.9775649758698 403.1795361995659 796.9775649758698 392.66176779308677L796.9775649758698 392.66176779308677L796.9775649758698 280.63463781780945L814.2874617538354 280.63463781780945L814.2874617538354 389.76723207359254Q814.2874617538354 397.619734916577 815.9496703848321 400.3136592495716Q817.6118790158288 402.97892481306627 824.8338889298144 402.97892481306627L824.8338889298144 402.97892481306627L828.7314815818066 402.97892481306627L828.7314815818066 418.254048956536ZM860.1128341842443 296.5115961207779L860.1128341842443 296.5115961207779Q854.9542556742546 296.5115961207779 851.1426393307621 292.6999797772855Q847.3023642177698 288.8883634337931 847.3023642177698 283.5005147678038L847.3023642177698 283.5005147678038Q847.3023642177698 278.1413248713144 851.1426393307621 274.4443436058218Q854.9542556742546 270.7187035708292 860.1128341842443 270.7187035708292L860.1128341842443 270.7187035708292Q865.4720240807337 270.7187035708292 869.2836404242262 274.4443436058218Q873.0952567677185 278.1413248713144 873.0952567677185 283.5005147678038L873.0952567677185 283.5005147678038Q873.0952567677185 288.8883634337931 869.2836404242262 292.6999797772855Q865.4720240807337 296.5115961207779 860.1128341842443 296.5115961207779ZM868.7677825732271 418.254048956536L851.4292270257615 418.254048956536L851.4292270257615 329.72710997121186L837.2144773537898 329.72710997121186L837.2144773537898 315.9135830722393L868.7677825732271 315.9135830722393L868.7677825732271 418.254048956536ZM942.2202088015811 420.71870313353105L942.2202088015811 420.71870313353105Q933.3646490260987 420.71870313353105 924.6810418676159 417.6235560275372Q916.0260934786331 414.5284089215434 908.9187186426473 408.05152701455626Q901.7826850371615 401.5459863380692 897.4552108426701 391.42944070458924Q893.1277366481787 381.3128950711094 893.1277366481787 367.4993681721368L893.1277366481787 367.4993681721368Q893.1277366481787 353.6571825036644 897.4552108426701 343.5692956396844Q901.7826850371615 333.45275000620444 908.9187186426473 326.9472093297174Q916.0260934786331 320.44166865323035 924.6810418676159 317.3465215472365Q933.3646490260987 314.2513744412426 942.2202088015811 314.2513744412426L942.2202088015811 314.2513744412426Q951.1044273465635 314.2513744412426 959.874010813546 317.3465215472365Q968.6435942805285 320.44166865323035 975.7509691165145 326.9472093297174Q982.8870027220003 333.45275000620444 987.099841838492 343.5692956396844Q991.3413397244835 353.6571825036644 991.3413397244835 367.4993681721368L991.3413397244835 367.4993681721368Q991.3413397244835 381.3128950711094 987.099841838492 391.42944070458924Q982.8870027220003 401.5459863380692 975.7509691165145 408.05152701455626Q968.6435942805285 414.5284089215434 959.874010813546 417.6235560275372Q951.1044273465635 420.71870313353105 942.2202088015811 420.71870313353105ZM942.2202088015811 405.4722377595613L942.2202088015811 405.4722377595613Q949.6714888715665 405.4722377595613 956.6642286295524 401.43135126006945Q963.6856271570384 397.41912353007734 968.2423715075295 389.05076283609395Q972.7704570885205 380.71106091161056 972.7704570885205 367.4993681721368L972.7704570885205 367.4993681721368Q972.7704570885205 354.2876754326631 968.2423715075295 345.9193147386797Q963.6856271570384 337.5796128141963 956.6642286295524 333.5387263147043Q949.6714888715665 329.52649858471233 942.2202088015811 329.52649858471233L942.2202088015811 329.52649858471233Q934.9981988875954 329.52649858471233 927.8908240516096 333.5387263147043Q920.7834492156237 337.5796128141963 916.2267048651328 345.9193147386797Q911.6986192841418 354.2876754326631 911.6986192841418 367.4993681721368L911.6986192841418 367.4993681721368Q911.6986192841418 380.71106091161056 916.2267048651328 389.05076283609395Q920.7834492156237 397.41912353007734 927.8908240516096 401.43135126006945Q934.9981988875954 405.4722377595613 942.2202088015811 405.4722377595613ZM1030.9477591734048 418.254048956536L1013.6378623954392 418.254048956536L1013.6378623954392 315.9135830722393L1026.4196735924138 315.9135830722393L1030.9477591734048 331.38931860220856Q1035.3038921373964 324.16730868822293 1043.1277362108808 319.2093415647328Q1050.9802390538653 314.2513744412426 1063.9626616373394 314.2513744412426L1063.9626616373394 314.2513744412426Q1082.5335442733021 314.2513744412426 1090.185435729787 325.08438931222116Q1097.808668416772 335.9174041831996 1097.808668416772 353.45657111716474L1097.808668416772 353.45657111716474L1097.808668416772 418.254048956536L1080.4701128693064 418.254048956536L1080.4701128693064 358.6151496271545Q1080.4701128693064 350.79130555367004 1079.0371743943092 344.08515349068335Q1077.604235919312 337.37900142769666 1072.732245104322 333.2521386197049Q1067.8889130588313 329.12527581171315 1058.0016375813511 329.12527581171315L1058.0016375813511 329.12527581171315Q1045.391779001376 329.12527581171315 1038.1697690873907 337.6655891226961Q1030.9477591734048 346.2345612031791 1030.9477591734048 362.74201243514625L1030.9477591734048 362.74201243514625L1030.9477591734048 418.254048956536Z " fill="#013DC" transform="matrix(0.7970423295118803,0,0,0.7970423295118803,0,24.447562348221368)"/></g></svg>